<?xml version="1.0" encoding="UTF-8"?>
<!DOCTYPE svg PUBLIC "-//W3C//DTD SVG 1.1//EN" "http://www.w3.org/Graphics/SVG/1.1/DTD/svg11.dtd">
<svg xmlns="http://www.w3.org/2000/svg" version="1.1" width="666px" height="375px" style="shape-rendering:geometricPrecision; text-rendering:geometricPrecision; image-rendering:optimizeQuality; fill-rule:evenodd; clip-rule:evenodd" xmlns:xlink="http://www.w3.org/1999/xlink">
<g><path style="opacity:0.87" fill="#fcfcfc" d="M 470.5,136.5 C 471.472,137.399 472.138,138.566 472.5,140C 470.756,146.127 469.589,152.294 469,158.5C 472.089,159.96 474.922,161.793 477.5,164C 480.351,165.608 483.351,166.274 486.5,166C 487.685,164.647 489.019,163.48 490.5,162.5C 491.814,158.433 493.314,154.433 495,150.5C 496.019,149.313 497.186,148.313 498.5,147.5C 499.28,149.83 499.946,152.496 500.5,155.5C 499.236,161.183 498.403,166.85 498,172.5C 502.82,171.585 507.653,171.085 512.5,171C 512.167,171.333 511.833,171.667 511.5,172C 515.958,178.639 515.291,184.639 509.5,190C 499.804,194.883 490.804,200.716 482.5,207.5C 489.056,214.601 492.222,222.934 492,232.5C 486.595,228.775 481.428,224.608 476.5,220C 474.412,218.97 472.245,218.137 470,217.5C 462.488,223.346 455.988,230.179 450.5,238C 457.162,245.149 460.162,253.649 459.5,263.5C 457.833,263.5 456.167,263.5 454.5,263.5C 453.909,260.386 452.242,257.886 449.5,256C 446.235,253.451 442.735,251.284 439,249.5C 432.081,254.542 425.914,260.375 420.5,267C 423.934,274.458 425.268,282.291 424.5,290.5C 422.473,290.662 420.473,290.495 418.5,290C 416.016,284.701 413.016,279.701 409.5,275C 404.027,274.98 399.194,276.813 395,280.5C 394.775,286.6 394.608,292.6 394.5,298.5C 390.493,299.613 386.493,299.613 382.5,298.5C 381.359,294 380.359,289.5 379.5,285C 351.171,285.239 322.837,285.739 294.5,286.5C 294.5,287.5 294.5,288.5 294.5,289.5C 293.732,288.737 293.232,287.737 293,286.5C 292.167,287.333 291.333,288.167 290.5,289C 292.224,289.448 292.891,290.282 292.5,291.5C 293.183,291.137 293.85,290.804 294.5,290.5C 294.699,293.941 294.199,297.274 293,300.5C 289.667,301.167 286.333,301.833 283,302.5C 282.5,302 282,301.5 281.5,301C 282.96,295.122 282.793,288.955 281,282.5C 276.896,279.947 272.563,277.947 268,276.5C 265.042,280.916 262.208,285.416 259.5,290C 260.354,291.881 260.021,293.714 258.5,295.5C 257.009,296.244 255.509,296.91 254,297.5C 253.308,296.975 252.808,296.308 252.5,295.5C 253.697,287.617 255.03,279.784 256.5,272C 249.612,266.784 242.446,261.95 235,257.5C 228.784,261.383 223.95,266.549 220.5,273C 219.833,273.667 219.167,273.667 218.5,273C 216.98,271.115 215.98,268.949 215.5,266.5C 218.1,260.134 221.1,253.968 224.5,248C 218.851,240.226 212.184,233.393 204.5,227.5C 199.194,232.14 194.194,237.14 189.5,242.5C 188.311,243.429 186.978,243.762 185.5,243.5C 184.773,233.181 187.773,224.014 194.5,216C 193.072,213.815 191.405,211.815 189.5,210C 177.85,202.503 166.517,194.503 155.5,186C 153.953,183.227 152.953,180.227 152.5,177C 153.743,175.846 154.743,174.512 155.5,173C 160.893,172.445 166.227,171.778 171.5,171C 174.618,169.853 177.618,168.52 180.5,167C 178.401,164.591 176.734,161.924 175.5,159C 176.451,155.943 176.784,152.777 176.5,149.5C 177.552,149.351 178.552,149.517 179.5,150C 182.361,155.528 186.528,159.694 192,162.5C 200.414,157.421 207.581,150.921 213.5,143C 216.907,142.147 219.24,140.147 220.5,137C 215.339,130.434 212.672,123.1 212.5,115C 213,114.5 213.5,114 214,113.5C 219.267,119.69 224.767,125.69 230.5,131.5C 239.709,126.617 248.376,120.95 256.5,114.5C 255.027,110.749 253.36,107.083 251.5,103.5C 252.004,98.7044 252.838,94.0377 254,89.5C 255.667,90.5 257,91.8333 258,93.5C 259.565,97.3998 261.565,101.066 264,104.5C 265.501,106.584 267.501,107.917 270,108.5C 276.557,106.202 283.057,103.702 289.5,101C 290.701,100.097 291.535,98.9308 292,97.5C 292.103,89.7559 292.769,82.0892 294,74.5C 294.667,75.8333 295.333,75.8333 296,74.5C 298.742,79.1332 300.409,84.1332 301,89.5C 301.882,92.5524 303.716,94.8858 306.5,96.5C 311.845,94.3578 317.345,92.6912 323,91.5C 324.301,91.9602 325.634,92.2935 327,92.5C 331.477,91.8202 335.977,91.3202 340.5,91C 338.978,78.3166 340.645,65.9832 345.5,54C 347.21,52.3889 349.043,50.8889 351,49.5C 353.969,49.5194 357.135,49.6861 360.5,50C 362,51.1145 363.667,51.9479 365.5,52.5C 366.216,54.482 367.383,56.1487 369,57.5C 370.088,70.3967 371.255,83.2301 372.5,96C 376.853,97.8733 381.353,99.3733 386,100.5C 389.163,94.1701 392.83,88.1701 397,82.5C 398.221,83.2718 399.221,84.2718 400,85.5C 400.219,92.7412 400.219,99.7412 400,106.5C 407.868,111.433 415.868,116.099 424,120.5C 426.467,116.4 429.301,112.566 432.5,109C 436.401,106.652 438.401,107.819 438.5,112.5C 437.041,117.791 435.708,123.124 434.5,128.5C 440.71,136.558 448.21,142.891 457,147.5C 460.825,144.376 464.325,140.876 467.5,137C 468.448,136.517 469.448,136.351 470.5,136.5 Z M 372.5,168.5 C 368.352,169.31 365.352,171.643 363.5,175.5C 362.277,176.614 360.944,176.781 359.5,176C 357.359,174.692 355.359,173.192 353.5,171.5C 352.379,168.863 352.379,166.196 353.5,163.5C 353.095,160.495 352.095,157.829 350.5,155.5C 350.167,154.167 349.833,154.167 349.5,155.5C 348.883,155.389 348.383,155.056 348,154.5C 347.578,158.009 346.578,161.343 345,164.5C 343.938,165.097 342.772,165.43 341.5,165.5C 334.244,163.45 326.91,162.95 319.5,164C 316.922,161.772 315.589,158.939 315.5,155.5C 314.167,155.5 312.833,155.5 311.5,155.5C 311.768,158.119 311.435,160.619 310.5,163C 312.325,164.466 312.825,166.299 312,168.5C 308.476,171.178 304.643,173.178 300.5,174.5C 296.967,172.494 293.3,170.994 289.5,170C 288.754,172.093 288.421,174.093 288.5,176C 289.899,177.062 290.899,178.395 291.5,180C 289.681,182.489 287.848,184.989 286,187.5C 284.804,181.581 284.138,175.581 284,169.5C 281.574,162.957 279.074,156.457 276.5,150C 277.836,146.476 280.003,143.643 283,141.5C 289.793,145.627 295.293,151.127 299.5,158C 305.462,158.961 307.295,156.794 305,151.5C 302.333,147.5 299.667,143.5 297,139.5C 296.43,128.917 300.596,126.75 309.5,133C 314.325,137.148 318.325,141.982 321.5,147.5C 323.765,148.647 326.098,148.814 328.5,148C 328.064,141.931 325.73,136.431 321.5,131.5C 321.609,125.26 324.942,122.76 331.5,124C 337.972,131.265 343.972,138.932 349.5,147C 352.298,147.561 354.131,146.394 355,143.5C 355.18,140.691 354.513,138.024 353,135.5C 351.333,118.504 349.833,101.504 348.5,84.5C 348.478,77.7874 348.978,71.1208 350,64.5C 352.992,58.4036 356.325,58.0702 360,63.5C 362.461,72.4018 362.961,81.4018 361.5,90.5C 362.868,106.076 364.368,121.41 366,136.5C 369.698,146.882 371.865,157.548 372.5,168.5 Z M 331.5,103.5 C 334.167,103.5 336.833,103.5 339.5,103.5C 339.364,106.551 339.698,109.551 340.5,112.5C 340.363,114.107 339.696,115.441 338.5,116.5C 334.897,114.23 331.397,112.564 328,111.5C 327.072,113.335 325.906,113.668 324.5,112.5C 322.78,113.934 320.78,114.767 318.5,115C 316.877,117.08 315.377,119.246 314,121.5C 308.975,120.147 303.975,119.48 299,119.5C 293.743,121.756 290.243,125.59 288.5,131C 283.617,132.072 278.95,133.739 274.5,136C 272.68,136.979 271.513,138.479 271,140.5C 270.333,146.833 270.333,153.167 271,159.5C 273.323,169.128 275.49,178.794 277.5,188.5C 274.284,208.086 276.45,227.086 284,245.5C 285.899,249.478 288.399,252.978 291.5,256C 290.271,257.529 288.771,258.696 287,259.5C 286.424,261.377 286.591,263.211 287.5,265C 287.235,267.535 286.069,269.368 284,270.5C 268.137,265.653 253.97,257.82 241.5,247C 229.815,235.313 218.815,222.98 208.5,210C 198.754,200.584 188.421,191.917 177.5,184C 185.733,180.102 193.733,175.769 201.5,171C 224.634,150.547 249.967,133.214 277.5,119C 293.292,112.603 309.625,108.27 326.5,106C 328.491,105.626 330.158,104.793 331.5,103.5 Z M 373.5,109.5 C 384.787,111.81 395.12,116.31 404.5,123C 413.167,129 421.833,135 430.5,141C 441.175,151.341 452.175,161.341 463.5,171C 472.116,175.807 481.116,179.807 490.5,183C 477.534,190.954 465.7,200.454 455,211.5C 447.286,221.092 439.453,230.592 431.5,240C 418.073,251.428 403.573,261.262 388,269.5C 386.853,268.542 385.853,268.875 385,270.5C 384.774,266.113 384.274,261.779 383.5,257.5C 380.914,256.52 378.247,256.187 375.5,256.5C 377.584,246.336 380.251,236.336 383.5,226.5C 382.832,216.002 383.165,205.502 384.5,195C 383.753,175.52 380.919,156.354 376,137.5C 375.643,129.805 374.976,122.138 374,114.5C 372.964,112.701 372.797,111.034 373.5,109.5 Z M 372.5,168.5 C 373.92,174.099 373.753,179.765 372,185.5C 371.097,184.299 369.931,183.465 368.5,183C 369.051,179.97 370.384,176.97 372.5,174C 371.464,172.224 371.464,170.391 372.5,168.5 Z M 316.5,220.5 C 317.94,222.388 319.606,224.055 321.5,225.5C 321.167,225.833 320.833,226.167 320.5,226.5C 307.811,219.727 296.144,210.894 285.5,200C 292.973,192.448 300.973,185.615 309.5,179.5C 314.809,176.347 320.475,174.014 326.5,172.5C 330.636,173.634 334.636,174.301 338.5,174.5C 324.319,173.351 314.152,179.351 308,192.5C 306,197.167 306,201.833 308,206.5C 310.106,211.73 312.939,216.397 316.5,220.5 Z M 350.5,178.5 C 354.097,180.756 357.431,183.423 360.5,186.5C 365.119,190.452 369.452,194.785 373.5,199.5C 373,200.5 372.5,201.5 372,202.5C 364.696,209.227 357.529,216.06 350.5,223C 342.917,226.307 335.251,227.974 327.5,228C 326.366,226.984 326.699,226.317 328.5,226C 330.713,225.374 332.88,225.541 335,226.5C 340.819,224.283 346.485,220.283 352,214.5C 353.626,212.083 355.126,209.583 356.5,207C 356.432,203.062 356.432,199.062 356.5,195C 353.589,188.665 349.589,183.165 344.5,178.5C 345.242,177.713 346.075,177.047 347,176.5C 347.816,177.823 348.983,178.489 350.5,178.5 Z M 324.5,181.5 C 342.017,180.188 350.517,188.188 350,205.5C 345.614,216.942 337.447,221.442 325.5,219C 316.141,213.016 311.975,204.516 313,193.5C 314.252,191.999 315.252,190.332 316,188.5C 318.996,186.267 321.829,183.934 324.5,181.5 Z M 327.5,195.5 C 333.806,194.707 336.639,197.374 336,203.5C 333.049,209.434 329.716,209.434 326,203.5C 325.109,200.502 325.609,197.836 327.5,195.5 Z M 368.5,236.5 C 368.035,241.655 366.869,246.655 365,251.5C 363.949,253.627 362.449,255.293 360.5,256.5C 343.255,256.049 326.588,256.549 310.5,258C 303.282,253.782 297.782,247.948 294,240.5C 291.111,235.391 288.778,230.057 287,224.5C 286.313,222.432 286.48,220.432 287.5,218.5C 287.023,217.522 286.357,216.689 285.5,216C 285.93,215.08 286.264,214.247 286.5,213.5C 291.643,217.249 296.643,221.249 301.5,225.5C 302.489,229.107 302.823,232.774 302.5,236.5C 305.463,236.047 307.796,234.547 309.5,232C 310.833,231.333 312.167,231.333 313.5,232C 317.898,234.271 322.564,235.938 327.5,237C 330.656,240.154 332.489,243.654 333,247.5C 334.011,246.663 335.178,246.33 336.5,246.5C 336.723,243.216 337.39,240.049 338.5,237C 345.234,235.383 351.401,232.549 357,228.5C 359.784,230.28 362.284,232.447 364.5,235C 365.901,235.41 367.234,235.91 368.5,236.5 Z M 370.5,216.5 C 371.641,219.64 371.808,222.973 371,226.5C 369.667,229.167 368.333,231.833 367,234.5C 367.67,230.802 366.837,227.302 364.5,224C 365.685,220.769 367.685,218.269 370.5,216.5 Z M 352.5,267.5 C 358.101,268.236 363.768,268.403 369.5,268C 370.5,268.333 371.5,268.667 372.5,269C 371.663,270.011 371.33,271.178 371.5,272.5C 347.811,272.703 324.311,273.036 301,273.5C 300.508,272.451 300.674,271.451 301.5,270.5C 303.146,269.34 304.979,268.673 307,268.5C 320.072,268.214 333.072,268.547 346,269.5C 348.346,269.01 350.513,268.343 352.5,267.5 Z"/></g>
<g><path style="opacity:0.012" fill="#fefffe" d="M 470.5,135.5 C 471.833,136.167 471.833,136.167 470.5,135.5 Z"/></g>
<g><path style="opacity:0.945" fill="#f1f1f1" d="M 309.5,179.5 C 305.757,179.541 305.59,178.874 309,177.5C 309.464,178.094 309.631,178.761 309.5,179.5 Z"/></g>
<g><path style="opacity:0.761" fill="#f9f9f9" d="M 360.5,186.5 C 357.431,183.423 354.097,180.756 350.5,178.5C 352.757,177.197 354.59,177.864 356,180.5C 357.507,179.465 359.007,179.632 360.5,181C 358.195,182.664 358.528,184.164 361.5,185.5C 362.192,184.975 362.692,184.308 363,183.5C 364.89,186.777 364.056,187.777 360.5,186.5 Z"/></g>
<g><path style="opacity:0.645" fill="#fcfcfc" d="M 327.5,189.5 C 330.212,189.737 332.712,189.737 335,189.5C 341.455,192.33 344.122,197.33 343,204.5C 340.342,210.521 335.842,213.021 329.5,212C 320.012,208.909 317.512,203.409 322,195.5C 324.04,193.63 325.873,191.63 327.5,189.5 Z M 327.5,195.5 C 325.609,197.836 325.109,200.502 326,203.5C 329.716,209.434 333.049,209.434 336,203.5C 336.639,197.374 333.806,194.707 327.5,195.5 Z"/></g>
<g><path style="opacity:0.98" fill="#f5f5f5" d="M 294.5,289.5 C 294.5,289.833 294.5,290.167 294.5,290.5C 293.85,290.804 293.183,291.137 292.5,291.5C 292.891,290.282 292.224,289.448 290.5,289C 291.333,288.167 292.167,287.333 293,286.5C 293.232,287.737 293.732,288.737 294.5,289.5 Z"/></g>
</svg>
